<?xml version="1.0" encoding="UTF-8" standalone="no"?>
<!-- Created with Inkscape (http://www.inkscape.org/) -->

<svg
   version="1.1"
   id="svg1"
   width="3001.3333"
   height="2530.6667"
   viewBox="0 0 3001.3333 2530.6667"
   sodipodi:docname="bingo-vetor.eps"
   xmlns:inkscape="http://www.inkscape.org/namespaces/inkscape"
   xmlns:sodipodi="http://sodipodi.sourceforge.net/DTD/sodipodi-0.dtd"
   xmlns="http://www.w3.org/2000/svg"
   xmlns:svg="http://www.w3.org/2000/svg">
  <defs
     id="defs1" />
  <sodipodi:namedview
     id="namedview1"
     pagecolor="#ffffff"
     bordercolor="#000000"
     borderopacity="0.25"
     inkscape:showpageshadow="2"
     inkscape:pageopacity="0.0"
     inkscape:pagecheckerboard="0"
     inkscape:deskcolor="#d1d1d1">
    <inkscape:page
       x="0"
       y="0"
       inkscape:label="1"
       id="page1"
       width="3001.3333"
       height="2530.6667"
       margin="0"
       bleed="0" />
  </sodipodi:namedview>
  <g
     id="g1"
     inkscape:groupmode="layer"
     inkscape:label="1">
    <path
       id="path1"
       d="M 17965.1,661.84 H 6671.21 V 1.37109 H 18625.6 V 5967.54 h -660.5 z"
       style="fill:#000000;fill-opacity:1;fill-rule:nonzero;stroke:none"
       transform="matrix(0.13333333,0,0,-0.13333333,0,2530.6667)" />
    <path
       id="path2"
       d="m 7353.71,15125.9 c 0,272 -105.62,519.6 -277.85,704.5 613.24,642.9 140.55,1746.1 -756.91,1739.2 H 5284.22 v -3478.4 h 1034.73 c 570.58,0 1034.76,464.2 1034.76,1034.7 z m -1408.98,1783.2 h 374.25 c 206.37,0 374.26,-167.8 374.26,-374.2 0,-206.4 -167.89,-374.3 -374.26,-374.3 h -374.25 z m 0,-1408.9 h 374.25 c 206.37,0 374.26,-167.9 374.26,-374.3 0,-206.4 -167.89,-374.3 -374.26,-374.3 h -374.25 z"
       style="fill:#000000;fill-opacity:1;fill-rule:nonzero;stroke:none"
       transform="matrix(0.13333333,0,0,-0.13333333,0,2530.6667)" />
    <path
       id="path3"
       d="m 7749.96,14069.2 h 660.469 v 3522.46 H 7749.96 Z"
       style="fill:#000000;fill-opacity:1;fill-rule:nonzero;stroke:none"
       transform="matrix(0.13333333,0,0,-0.13333333,0,2530.6667)" />
    <path
       id="path4"
       d="m 14398.6,14597.5 v 1563.1 h -1387 v -660.4 h 726.6 v -748.6 h -1453 v 2157.5 h 1783.2 v 660.5 H 12131 c -279.2,0 -506.3,-227.1 -506.3,-506.4 v -2465.7 c 0,-279.1 227.1,-506.3 506.3,-506.3 h 1761.3 c 279.1,0 506.3,227.2 506.3,506.3 z"
       style="fill:#000000;fill-opacity:1;fill-rule:nonzero;stroke:none"
       transform="matrix(0.13333333,0,0,-0.13333333,0,2530.6667)" />
    <path
       id="path5"
       d="m 15301.3,14091.2 h 1408.9 c 279.2,0 506.4,227.2 506.4,506.3 v 2465.7 c 0,279.3 -227.2,506.4 -506.4,506.4 h -1408.9 c -279.3,0 -506.4,-227.1 -506.4,-506.4 v -2465.7 c 0,-279.1 227.1,-506.3 506.4,-506.3 z m 154.1,2817.9 h 1100.78 V 14751.6 H 15455.4 Z"
       style="fill:#000000;fill-opacity:1;fill-rule:nonzero;stroke:none"
       transform="matrix(0.13333333,0,0,-0.13333333,0,2530.6667)" />
    <path
       id="path6"
       d="m 11228.4,17591.6 h -660.5 v -2041.3 l -1198.95,2019.3 h -562.23 v -3500.4 h 660.47 v 2041.4 l 1199.01,-2019.4 h 562.2 z"
       style="fill:#000000;fill-opacity:1;fill-rule:nonzero;stroke:none"
       transform="matrix(0.13333333,0,0,-0.13333333,0,2530.6667)" />
    <path
       id="path7"
       d="m 9489.18,12682.2 h 704.492 v 660.469 H 9489.18 Z"
       style="fill:#000000;fill-opacity:1;fill-rule:nonzero;stroke:none"
       transform="matrix(0.13333333,0,0,-0.13333333,0,2530.6667)" />
    <path
       id="path8"
       d="m 10898.2,12682.2 h 704.488 v 660.469 H 10898.2 Z"
       style="fill:#000000;fill-opacity:1;fill-rule:nonzero;stroke:none"
       transform="matrix(0.13333333,0,0,-0.13333333,0,2530.6667)" />
    <path
       id="path9"
       d="m 12307.1,12682.2 h 704.492 v 660.469 H 12307.1 Z"
       style="fill:#000000;fill-opacity:1;fill-rule:nonzero;stroke:none"
       transform="matrix(0.13333333,0,0,-0.13333333,0,2530.6667)" />
    <path
       id="path10"
       d="m 5262.23,12682.2 h 3522.46 v 660.469 H 5262.23 Z"
       style="fill:#000000;fill-opacity:1;fill-rule:nonzero;stroke:none"
       transform="matrix(0.13333333,0,0,-0.13333333,0,2530.6667)" />
    <path
       id="path11"
       d="m 13716.1,12682.2 h 3522.46 v 660.469 H 13716.1 Z"
       style="fill:#000000;fill-opacity:1;fill-rule:nonzero;stroke:none"
       transform="matrix(0.13333333,0,0,-0.13333333,0,2530.6667)" />
    <path
       id="path12"
       d="m 22352,9422.89 -1123.9,1123.81 1056.7,1056.7 -1347.6,1347.7 -1056.7,-1056.8 -176.1,176.1 -1078.8,-1078.7 v 7986.9 H 3875.31 V 8080.98 h 660.47 V 11273.2 H 17965.2 v -942 l -748.6,-748.5 v 942 H 5284.3 V 7668.71 c -434.89,105.16 -912.97,-11.64 -1251.84,-350.55 L 3853.32,7138.98 3674.14,7318.2 C 2815.35,8178.32 1329.92,7505.78 1412.7,6294.02 201.949,6370.98 -474.379,4903.59 389.18,4033.2 L 568.359,3853.98 389.18,3674.84 C -474.262,2805.16 202.07,1336.25 1412.73,1413.98 1330.04,201.879 2815.86,-470.117 3674.18,389.883 l 179.18,179.18 C 4174.26,216.762 4498.09,3.44141 4970.55,1.91016 5706.68,-16.0898 6360.66,665.199 6293.98,1413.98 c 8.36,-0.5 16.72,-1.25 25.08,-1.6 v -2.03 H 17216.7 v 4420.43 l 3896.7,3896.68 662.7,-662.66 -2657.4,-2657.42 467,-467.03 2766.4,2766.41 c 197.3,197.42 197.3,518.67 -0.1,716.13 z M 4535.74,18318.1 h 13429.4 V 11933.65 H 4535.74 Z m 16401.46,-6301 413.6,-413.7 -589.7,-589.6 -413.6,413.5 z m -6342.7,-7874.4 -1412.9,-470.98 470.9,1412.93 3938.4,3938.36 942,-941.96 z m -856.3,1961.64 -662.9,-662.89 -419,-1257.15 h -1075.6 v 1453 h 1078.7 v 660.43 h -1078.7 v 1453.05 h 2157.5 z m 660.4,1646.44 h 986 l -986,-985.98 z M 10920.2,4184.3 H 8762.7 v 1453 h 2157.5 z m 660.5,5679.96 h 2157.5 V 8411.21 H 11580.7 Z M 10920.2,8411.21 H 8762.7 v 1453.05 h 2157.5 z m 0,-2113.48 H 8762.7 v 1453.05 h 2157.5 z m -2817.97,0 H 6294.14 c 23.52,362.54 -103.48,717.54 -349.41,982.43 v 470.62 h 2157.5 z m 0,-660.43 v -1453 h -654.65 c 311.01,407.73 343.24,1013.51 79.3,1453 z m 0,-2113.47 V 2070.82 h -575.35 c 263.94,439.45 231.71,1045.27 -79.34,1453.01 z m 660.47,0 h 2157.5 V 2070.82 H 8762.7 Z m 2818,0 h 855.4 l -298.8,-896.41 1600.9,533.63 V 2070.82 H 11580.7 Z M 16556.1,8922.3 16045,8411.29 H 14398.6 V 9864.3 h 2157.5 z M 8102.23,8411.21 h -2157.5 v 1453.05 h 2157.5 z M 2070,6380.27 c -10.86,357.19 316.88,676.64 666.09,665.75 170.55,0 341.18,-64.93 471.02,-194.77 l 646.21,-646.21 646.17,646.17 c 412.46,417.81 1141.99,115.86 1137.07,-471.01 0,-177.9 -69.33,-345.16 -195.11,-470.94 L 3853.32,4321.09 2265.16,5909.26 C 2139.34,6035.08 2070,6202.3 2070,6380.27 Z M 856.129,2265.86 c -258.359,247.97 -258.359,694.06 0,942.03 l 646.211,646.21 -646.211,646.21 c -125.777,125.78 -195.109,293.05 -195.109,470.98 -10.86,357.11 316.871,676.64 666.13,665.74 170.51,0 341.13,-64.92 470.97,-194.8 L 3386.29,3854.1 1798.12,2265.94 c -259.72,-259.69 -682.3,-259.73 -941.991,-0.08 z M 5636.48,1327.89 C 5641.29,740.98 4911.88,439.102 4499.45,856.879 L 3853.24,1503.12 3207.07,856.91 C 2557.73,257.109 1664.96,1150.98 2264.8,1798.59 l 0.28,0.28 1588.12,1588.2 1588.17,-1588.2 c 125.82,-125.78 195.11,-293.05 195.11,-470.98 z M 4320.23,3854.06 5908.4,5442.19 c 412.38,417.81 1141.91,115.86 1137.03,-470.98 0,-177.93 -69.3,-345.23 -195.08,-471.01 l -646.21,-646.22 646.21,-646.21 c 125.78,-125.74 195.08,-293.04 195.08,-470.97 4.88,-586.68 -724.65,-888.91 -1137.03,-470.94 0.04,0.04 -1588.17,1588.2 -1588.17,1588.2 z M 14398.6,2070.82 v 1310.39 l 427.9,142.62 h 1729.6 V 2070.82 Z m 2157.5,2113.48 h -985.9 l 985.9,985.97 z m 2443.7,4363.75 -942,941.91 1646.5,1646.44 942,-942 z"
       style="fill:#000000;fill-opacity:1;fill-rule:nonzero;stroke:none"
       transform="matrix(0.13333333,0,0,-0.13333333,0,2530.6667)" />
  </g>
</svg>
